<svg width="63" height="62" viewBox="0 0 63 62" fill="none" xmlns="http://www.w3.org/2000/svg">
<ellipse cx="31.5" cy="31" rx="31.5" ry="31" fill="black"/>
<path d="M32 56L29.0635 45.7119C30.0132 45.9004 30.995 46 32 46C33.0047 46 33.9862 45.9003 34.9355 45.7119L32 56ZM17.7891 35.8145C18.4299 37.7067 19.4389 39.429 20.7295 40.8975L10.3496 43.5L17.7891 35.8145ZM53.6504 43.5L43.2695 40.8975C44.5603 39.4289 45.569 37.7068 46.21 35.8145L53.6504 43.5ZM20.7295 21.1016C19.4388 22.57 18.43 24.2924 17.7891 26.1846L10.3496 18.5L20.7295 21.1016ZM46.21 26.1846C45.5689 24.2923 44.5603 22.57 43.2695 21.1016L53.6504 18.5L46.21 26.1846ZM34.9355 16.2871C33.9862 16.0988 33.0046 16 32 16C30.995 16 30.0131 16.0986 29.0635 16.2871L32 6L34.9355 16.2871Z" fill="url(#paint0_linear_371_112)"/>
<circle cx="32" cy="31" r="10" fill="url(#paint1_linear_371_112)"/>
<defs>
<linearGradient id="paint0_linear_371_112" x1="32" y1="6" x2="32" y2="56" gradientUnits="userSpaceOnUse">
<stop stop-color="#FBFF00"/>
<stop offset="1" stop-color="#FFAE00"/>
</linearGradient>
<linearGradient id="paint1_linear_371_112" x1="32" y1="21" x2="32" y2="41" gradientUnits="userSpaceOnUse">
<stop stop-color="#FBFF00"/>
<stop offset="1" stop-color="#FFAE00"/>
</linearGradient>
</defs>
</svg>
